<?xml version="1.0" encoding="us-ascii" standalone="no"?><svg xmlns="http://www.w3.org/2000/svg" xmlns:xlink="http://www.w3.org/1999/xlink" contentStyleType="text/css" height="476px" preserveAspectRatio="none" style="width:1220px;height:476px;background:#FFFFFF;" version="1.1" viewBox="0 0 1220 476" width="1220px" zoomAndPan="magnify"><defs/><g><text fill="#000000" font-family="Verdana" font-size="22" font-weight="bold" lengthAdjust="spacing" textLength="1187" x="15" y="37.1182">Diagrama de Objetos - Cen&#225;rio: "Jos&#233; compra um Livro na Amazon usando seu cart&#227;o Nubank"</text><g id="elem_u1"><rect fill="#FFFFE0" height="65.4746" style="stroke:#000000;stroke-width:1.0;" width="163" x="562.75" y="62.7373"/><text fill="#000000" font-family="Verdana" font-size="11" lengthAdjust="spacing" textLength="66" x="611.25" y="75.7964">u1: Usuario</text><line style="stroke:#000000;stroke-width:1.0;" x1="563.75" x2="724.75" y1="80.106" y2="80.106"/><text fill="#000000" font-family="Verdana" font-size="11" lengthAdjust="spacing" textLength="85" x="568.75" y="95.165">Nome = "Jos&#233;"</text><text fill="#000000" font-family="Verdana" font-size="11" lengthAdjust="spacing" textLength="151" x="568.75" y="108.5337">Email = "jose@email.com"</text><text fill="#000000" font-family="Verdana" font-size="11" lengthAdjust="spacing" textLength="58" x="568.75" y="121.9023">Senha = "</text><text fill="#000000" font-family="Verdana" font-size="11" font-weight="bold" lengthAdjust="spacing" textLength="8" x="626.75" y="121.9023">*</text><text fill="#000000" font-family="Verdana" font-size="11" lengthAdjust="spacing" textLength="26" x="634.75" y="121.9023">***"</text></g><g id="elem_p1"><rect fill="#FFFFE0" height="65.4746" style="stroke:#000000;stroke-width:1.0;" width="150" x="798.25" y="391.2373"/><text fill="#000000" font-family="Verdana" font-size="11" lengthAdjust="spacing" textLength="136" x="805.25" y="404.2964">p1: ProgramaFidelidade</text><line style="stroke:#000000;stroke-width:1.0;" x1="799.25" x2="947.25" y1="408.606" y2="408.606"/><text fill="#000000" font-family="Verdana" font-size="11" lengthAdjust="spacing" textLength="93" x="804.25" y="423.665">Nome = "Livelo"</text><text fill="#000000" font-family="Verdana" font-size="11" lengthAdjust="spacing" textLength="115" x="804.25" y="437.0337">Banco = "Bradesco"</text><text fill="#000000" font-family="Verdana" font-size="11" lengthAdjust="spacing" textLength="126" x="804.25" y="450.4023">FatorConversao = 1.0</text></g><g id="elem_c1"><rect fill="#FFFFE0" height="92.2119" style="stroke:#000000;stroke-width:1.0;" width="184" x="552.25" y="208.7373"/><text fill="#000000" font-family="Verdana" font-size="11" lengthAdjust="spacing" textLength="61" x="613.75" y="221.7964">c1: Cartao</text><line style="stroke:#000000;stroke-width:1.0;" x1="553.25" x2="735.25" y1="226.106" y2="226.106"/><text fill="#000000" font-family="Verdana" font-size="11" lengthAdjust="spacing" textLength="172" x="558.25" y="241.165">Nome = "Nubank Ultravioleta"</text><text fill="#000000" font-family="Verdana" font-size="11" lengthAdjust="spacing" textLength="141" x="558.25" y="254.5337">Bandeira = "Mastercard"</text><text fill="#000000" font-family="Verdana" font-size="11" lengthAdjust="spacing" textLength="97" x="558.25" y="267.9023">Limite = 5000.00</text><text fill="#000000" font-family="Verdana" font-size="11" lengthAdjust="spacing" textLength="102" x="558.25" y="281.271">FatorPontos = 1.0</text><text fill="#000000" font-family="Verdana" font-size="11" lengthAdjust="spacing" textLength="117" x="558.25" y="294.6396">DiaVencimento = 15</text></g><g id="elem_t1"><rect fill="#FFFFE0" height="92.2119" style="stroke:#000000;stroke-width:1.0;" width="182" x="324.25" y="377.7373"/><text fill="#000000" font-family="Verdana" font-size="11" lengthAdjust="spacing" textLength="79" x="375.75" y="390.7964">t1: Transacao</text><line style="stroke:#000000;stroke-width:1.0;" x1="325.25" x2="505.25" y1="395.106" y2="395.106"/><text fill="#000000" font-family="Verdana" font-size="11" lengthAdjust="spacing" textLength="170" x="330.25" y="410.165">Descricao = "Livro - Amazon"</text><text fill="#000000" font-family="Verdana" font-size="11" lengthAdjust="spacing" textLength="86" x="330.25" y="423.5337">Valor = 100.00</text><text fill="#000000" font-family="Verdana" font-size="11" lengthAdjust="spacing" textLength="137" x="330.25" y="436.9023">Categoria = "Educa&#231;&#227;o"</text><text fill="#000000" font-family="Verdana" font-size="11" lengthAdjust="spacing" textLength="120" x="330.25" y="450.271">Data = "2024-01-15"</text><text fill="#000000" font-family="Verdana" font-size="11" lengthAdjust="spacing" textLength="135" x="330.25" y="463.6396">PontosGerados = 100.0</text></g><g id="elem_GMN9"><path d="M541.75,392.7373 L541.75,419.7373 L506.44,423.7373 L541.75,427.7373 L541.75,454.9966 A0,0 0 0 0 541.75,454.9966 L762.75,454.9966 A0,0 0 0 0 762.75,454.9966 L762.75,402.7373 L752.75,392.7373 L541.75,392.7373 A0,0 0 0 0 541.75,392.7373 " fill="#FFFFFF" style="stroke:#000000;stroke-width:1.0;"/><path d="M752.75,392.7373 L752.75,402.7373 L762.75,402.7373 L752.75,392.7373 " fill="#FFFFFF" style="stroke:#000000;stroke-width:1.0;"/><text fill="#000000" font-family="Verdana" font-size="13" font-weight="bold" lengthAdjust="spacing" textLength="134" x="547.75" y="410.8071">C&#225;lculo de Pontos:</text><text fill="#000000" font-family="Verdana" font-size="13" lengthAdjust="spacing" textLength="186" x="547.75" y="426.6064">Valor R$ 100,00 &#215; Fator 1.0</text><text fill="#000000" font-family="Verdana" font-size="17" font-weight="bold" lengthAdjust="spacing" textLength="200" x="547.75" y="446.4272">100 pontos na Livelo</text></g><g id="elem_GMN12"><path d="M282.75,58.7373 L282.75,131.9346 A0,0 0 0 0 282.75,131.9346 L527.75,131.9346 A0,0 0 0 0 527.75,131.9346 L527.75,99.2373 L562.52,95.2373 L527.75,91.2373 L527.75,68.7373 L517.75,58.7373 L282.75,58.7373 A0,0 0 0 0 282.75,58.7373 " fill="#FFFFFF" style="stroke:#000000;stroke-width:1.0;"/><path d="M517.75,58.7373 L517.75,68.7373 L527.75,68.7373 L517.75,58.7373 " fill="#FFFFFF" style="stroke:#000000;stroke-width:1.0;"/><text fill="#000000" font-family="Verdana" font-size="13" font-weight="bold" lengthAdjust="spacing" textLength="127" x="288.75" y="76.8071">Cen&#225;rio de Teste:</text><text fill="#000000" font-family="Verdana" font-size="13" lengthAdjust="spacing" textLength="200" x="288.75" y="92.6064">O usu&#225;rio Jos&#233; usa seu cart&#227;o</text><text fill="#000000" font-family="Verdana" font-size="13" lengthAdjust="spacing" textLength="182" x="288.75" y="108.4058">Nubank (vinculado &#224; Livelo)</text><text fill="#000000" font-family="Verdana" font-size="13" lengthAdjust="spacing" textLength="224" x="288.75" y="124.2051">para comprar um Livro na Amazon</text></g><!--link u1 to c1--><g id="link_u1_c1"><path codeLine="39" d="M644.25,128.1073 C644.25,151.2073 644.25,182.7773 644.25,208.4773 " fill="none" id="u1-c1" style="stroke:#000000;stroke-width:1.0;"/><polygon fill="#000000" points="649.25,175.637,652.1889,166.5919,646.3111,166.5919,649.25,175.637" style="stroke:#000000;stroke-width:1.0;"/><text fill="#000000" font-family="Verdana" font-size="13" lengthAdjust="spacing" textLength="41" x="658.25" y="175.8071">possui</text><text fill="#000000" font-family="Verdana" font-size="13" lengthAdjust="spacing" textLength="8" x="635.4625" y="149.1569">1</text><text fill="#000000" font-family="Verdana" font-size="13" lengthAdjust="spacing" textLength="27" x="615.0984" y="198.0259">1..*</text></g><!--link c1 to p1--><g id="link_c1_p1"><path codeLine="40" d="M706.22,300.9273 C745.3,329.4273 794.79,365.5173 829.73,390.9973 " fill="none" id="c1-p1" style="stroke:#000000;stroke-width:1.0;"/><polygon fill="#000000" points="774.2899,342.5831,768.7133,334.879,765.25,339.6281,774.2899,342.5831" style="stroke:#000000;stroke-width:1.0;"/><text fill="#000000" font-family="Verdana" font-size="13" lengthAdjust="spacing" textLength="70" x="779.25" y="344.8071">pontua em</text><text fill="#000000" font-family="Verdana" font-size="13" lengthAdjust="spacing" textLength="8" x="706.7343" y="321.926">1</text><text fill="#000000" font-family="Verdana" font-size="13" lengthAdjust="spacing" textLength="8" x="811.335" y="380.3001">1</text></g><!--link c1 to t1--><g id="link_c1_t1"><path codeLine="41" d="M582.28,300.9273 C549.69,324.6973 509.86,353.7373 477.27,377.5073 " fill="none" id="c1-t1" style="stroke:#000000;stroke-width:1.0;"/><polygon fill="#000000" points="538.2101,342.5831,547.25,339.6281,543.7866,334.8789,538.2101,342.5831" style="stroke:#000000;stroke-width:1.0;"/><text fill="#000000" font-family="Verdana" font-size="13" lengthAdjust="spacing" textLength="50" x="551.25" y="344.8071">registra</text><text fill="#000000" font-family="Verdana" font-size="13" lengthAdjust="spacing" textLength="8" x="564.5907" y="321.926">1</text><text fill="#000000" font-family="Verdana" font-size="13" lengthAdjust="spacing" textLength="27" x="458.0029" y="367.0607">0..*</text></g><!--SRC=[RLJBJjmm5DtxAswZIi2eCqfGsOpKgim0LIiAY9VKvSMv36OSU-J7L0BrExejxQBgT-J7UXq7XaUpYNBFiS-vhxmALzGGB3Gg8_nScGKwRC1UN9CC4vJpcRFHr5EhhODzDRiANqbh- -qbrxgQNEPDD1zymTYp9foe6u9gymMs7O9J5p7GYbG94LJG13iAPyn4g0aEcHsiXo5CoRHtJjan59-jR_-2jCt28SI6RIwT1OEmtU2DDH0zcjg2fmWINMX_MpY85sZcXH1hyCduqFuoKg67cg_k9KGs1aMind3c8x9M0So95TmAuEV0Sk7UzV955zfjKEaKkxQUFb3w6h6l39wGkS843lgd4D_5Wyo2POwSxJBTKpLfLMDDdUBYkI8dIDhcMoTef4t1YME-btru3uFbRfWbEOy9hqRbOpd9SbCk1kQav7E9N20uqy7XKbbD0H_qQbAkI-GB-a2EQrfdR5yrAgJZMsLPZifovUI8sygrpJPIb9jwJbpqXXX8yQt7xWAxEtLeFChUOBWtkCCvEYMxd8hSwM7Vw6pY7DC8yeqh2rCCDBDETQPtwoYn_SDJaFax6BhuPhdvTbXMmsehnxFbZyHbpSxJVSda6XmJ3xYo1Zlt7jRtbPdx3S6ZKLG538Vy6eq6HIhh61RM-wZWlP2Fu29rDM4cH0Hgdi9bTpeaXgEPyjm49WXZkRekBI7OIuRPvs0mRU-qZDgczSYUnuE1kA_3yUja_4rPGliZjoAr01ZlCkeCS0QyB7ce19aQaawlfkco4ukzMBzrIUoKkFjPwv1tB6OWBoElt9DzOqu_KUjBPTWk5nNQdxteHiBJxw1VOlUVBLuP-mS0]--></g></svg>