<?xml version="1.0" encoding="UTF-8" standalone="no"?><svg xmlns="http://www.w3.org/2000/svg" xmlns:xlink="http://www.w3.org/1999/xlink" contentStyleType="text/css" height="502px" preserveAspectRatio="none" style="width:737px;height:502px;background:#FFFFFF;" version="1.1" viewBox="0 0 737 502" width="737px" zoomAndPan="magnify"><defs/><g><rect fill="none" height="26.2969" id="_title" style="stroke:none;stroke-width:1.0;" width="284" x="219.5" y="5"/><text fill="#000000" font-family="sans-serif" font-size="14" font-weight="bold" lengthAdjust="spacing" textLength="274" x="224.5" y="22.9951">Modelo Conceitual - Miles Manager</text><!--MD5=[35a64b983c79880384a2fd9b61f0c24b]
class Usuario--><g id="elem_Usuario"><rect codeLine="9" fill="#F1F1F1" height="83.1875" id="Usuario" rx="2.5" ry="2.5" style="stroke:#181818;stroke-width:0.5;" width="108" x="281.5" y="44.2969"/><text fill="#000000" font-family="sans-serif" font-size="14" lengthAdjust="spacing" textLength="52" x="309.5" y="62.292">Usuario</text><line style="stroke:#181818;stroke-width:0.5;" x1="282.5" x2="388.5" y1="70.5938" y2="70.5938"/><text fill="#000000" font-family="sans-serif" font-size="14" lengthAdjust="spacing" textLength="93" x="287.5" y="87.5889">nome : String</text><text fill="#000000" font-family="sans-serif" font-size="14" lengthAdjust="spacing" textLength="89" x="287.5" y="103.8857">email : String</text><text fill="#000000" font-family="sans-serif" font-size="14" lengthAdjust="spacing" textLength="96" x="287.5" y="120.1826">senha : String</text></g><!--MD5=[a13ca1da61a66d544daddca6fa0a1a30]
class Cartao--><g id="elem_Cartao"><rect codeLine="15" fill="#F1F1F1" height="115.7813" id="Cartao" rx="2.5" ry="2.5" style="stroke:#181818;stroke-width:0.5;" width="180" x="245.5" y="187.2969"/><text fill="#000000" font-family="sans-serif" font-size="14" lengthAdjust="spacing" textLength="45" x="313" y="205.292">Cartao</text><line style="stroke:#181818;stroke-width:0.5;" x1="246.5" x2="424.5" y1="213.5938" y2="213.5938"/><text fill="#000000" font-family="sans-serif" font-size="14" lengthAdjust="spacing" textLength="93" x="251.5" y="230.5889">nome : String</text><text fill="#000000" font-family="sans-serif" font-size="14" lengthAdjust="spacing" textLength="113" x="251.5" y="246.8857">bandeira : String</text><text fill="#000000" font-family="sans-serif" font-size="14" lengthAdjust="spacing" textLength="99" x="251.5" y="263.1826">limite : Double</text><text fill="#000000" font-family="sans-serif" font-size="14" lengthAdjust="spacing" textLength="165" x="251.5" y="279.4795">diaVencimento : Integer</text><text fill="#000000" font-family="sans-serif" font-size="14" lengthAdjust="spacing" textLength="168" x="251.5" y="295.7764">fatorConversao : Double</text></g><!--MD5=[bccb4c1d67246c2b8cf92958961a97de]
class ProgramaFidelidade--><g id="elem_ProgramaFidelidade"><rect codeLine="23" fill="#F1F1F1" height="66.8906" id="ProgramaFidelidade" rx="2.5" ry="2.5" style="stroke:#181818;stroke-width:0.5;" width="197" x="469" y="395.7969"/><text fill="#000000" font-family="sans-serif" font-size="14" lengthAdjust="spacing" textLength="136" x="499.5" y="413.792">ProgramaFidelidade</text><line style="stroke:#181818;stroke-width:0.5;" x1="470" x2="665" y1="422.0938" y2="422.0938"/><text fill="#000000" font-family="sans-serif" font-size="14" lengthAdjust="spacing" textLength="93" x="475" y="439.0889">nome : String</text><text fill="#000000" font-family="sans-serif" font-size="14" lengthAdjust="spacing" textLength="185" x="475" y="455.3857">bancoResponsavel : String</text></g><!--MD5=[2de463454f7588e20c9a29e8d111f9cc]
class Transacao--><g id="elem_Transacao"><rect codeLine="28" fill="#F1F1F1" height="132.0781" id="Transacao" rx="2.5" ry="2.5" style="stroke:#181818;stroke-width:0.5;" width="195" x="7" y="363.2969"/><text fill="#000000" font-family="sans-serif" font-size="14" lengthAdjust="spacing" textLength="72" x="68.5" y="381.292">Transacao</text><line style="stroke:#181818;stroke-width:0.5;" x1="8" x2="201" y1="389.5938" y2="389.5938"/><text fill="#000000" font-family="sans-serif" font-size="14" lengthAdjust="spacing" textLength="76" x="13" y="406.5889">data : Date</text><text fill="#000000" font-family="sans-serif" font-size="14" lengthAdjust="spacing" textLength="95" x="13" y="422.8857">valor : Double</text><text fill="#000000" font-family="sans-serif" font-size="14" lengthAdjust="spacing" textLength="120" x="13" y="439.1826">descricao : String</text><text fill="#000000" font-family="sans-serif" font-size="14" lengthAdjust="spacing" textLength="117" x="13" y="455.4795">categoria : String</text><text fill="#000000" font-family="sans-serif" font-size="14" lengthAdjust="spacing" textLength="154" x="13" y="471.7764">cotacaoDolar : Double</text><text fill="#000000" font-family="sans-serif" font-size="14" lengthAdjust="spacing" textLength="183" x="13" y="488.0732">pontosEstimados : Integer</text></g><path d="M461,212.7969 L461,236.4961 L419.5,290.9297 L461,244.4961 L461,268.1953 A0,0 0 0 0 461,268.1953 L730,268.1953 A0,0 0 0 0 730,268.1953 L730,222.7969 L720,212.7969 L461,212.7969 A0,0 0 0 0 461,212.7969 " fill="#FEFFDD" style="stroke:#181818;stroke-width:0.5;"/><path d="M720,212.7969 L720,222.7969 L730,222.7969 L720,212.7969 " fill="#FEFFDD" style="stroke:#181818;stroke-width:0.5;"/><text fill="#000000" font-family="sans-serif" font-size="13" lengthAdjust="spacing" textLength="120" x="467" y="229.8638">Simplificação MVP:</text><text fill="#000000" font-family="sans-serif" font-size="13" lengthAdjust="spacing" textLength="248" x="467" y="244.9966">Regra de conversão (Pontos por Dólar)</text><text fill="#000000" font-family="sans-serif" font-size="13" lengthAdjust="spacing" textLength="93" x="467" y="260.1294">fica no Cartão.</text><path d="M237.5,386.7969 L237.5,402.9297 L196,483.2266 L237.5,410.9297 L237.5,427.0625 A0,0 0 0 0 237.5,427.0625 L433.5,427.0625 A0,0 0 0 0 433.5,427.0625 L433.5,396.7969 L423.5,386.7969 L237.5,386.7969 A0,0 0 0 0 237.5,386.7969 " fill="#FEFFDD" style="stroke:#181818;stroke-width:0.5;"/><path d="M423.5,386.7969 L423.5,396.7969 L433.5,396.7969 L423.5,386.7969 " fill="#FEFFDD" style="stroke:#181818;stroke-width:0.5;"/><text fill="#000000" font-family="sans-serif" font-size="13" lengthAdjust="spacing" textLength="175" x="243.5" y="403.8638">Valor calculado e persistido</text><text fill="#000000" font-family="sans-serif" font-size="13" lengthAdjust="spacing" textLength="54" x="243.5" y="418.9966">(RF-006)</text><path d="M237.5,437.0625 L237.5,445.6289 L167,466.9297 L237.5,453.6289 L237.5,462.1953 A0,0 0 0 0 237.5,462.1953 L406.5,462.1953 A0,0 0 0 0 406.5,462.1953 L406.5,447.0625 L396.5,437.0625 L237.5,437.0625 A0,0 0 0 0 237.5,437.0625 " fill="#FEFFDD" style="stroke:#181818;stroke-width:0.5;"/><path d="M396.5,437.0625 L396.5,447.0625 L406.5,447.0625 L396.5,437.0625 " fill="#FEFFDD" style="stroke:#181818;stroke-width:0.5;"/><text fill="#000000" font-family="sans-serif" font-size="13" lengthAdjust="spacing" textLength="148" x="243.5" y="454.1294">Dólar do dia (Auditoria)</text><!--MD5=[a679c5113930c1324ac8a6bbaafad7d8]
link Usuario to Cartao--><g id="link_Usuario_Cartao"><path codeLine="40" d="M335.5,127.7069 C335.5,145.8869 335.5,167.4869 335.5,187.1769 " fill="none" id="Usuario-Cartao" style="stroke:#181818;stroke-width:1.0;"/><polygon fill="#000000" points="340.5,154.0133,343.4389,144.9682,337.5611,144.9682,340.5,154.0133" style="stroke:#000000;stroke-width:1.0;"/><text fill="#000000" font-family="sans-serif" font-size="13" lengthAdjust="spacing" textLength="41" x="349.5" y="153.5138">possui</text><text fill="#000000" font-family="sans-serif" font-size="13" lengthAdjust="spacing" textLength="8" x="326.8625" y="147.6441">1</text><text fill="#000000" font-family="sans-serif" font-size="13" lengthAdjust="spacing" textLength="23" x="311.0984" y="176.2678">0..*</text></g><!--MD5=[03724dc1fb7be3e9e5bca37d37a1ac58]
link Cartao to ProgramaFidelidade--><g id="link_Cartao_ProgramaFidelidade"><path codeLine="43" d="M425.53,291.2969 C490.74,291.2969 567.5,291.2969 567.5,291.2969 C567.5,291.2969 567.5,354.6869 567.5,395.5369 " fill="none" id="Cartao-ProgramaFidelidade" style="stroke:#181818;stroke-width:1.0;"/><polygon fill="#000000" points="470.6703,302.8225,465.1188,295.1003,461.6401,299.8382,470.6703,302.8225" style="stroke:#000000;stroke-width:1.0;"/><text fill="#000000" font-family="sans-serif" font-size="13" lengthAdjust="spacing" textLength="72" x="475.64" y="304.3638">vinculado a</text><text fill="#000000" font-family="sans-serif" font-size="13" lengthAdjust="spacing" textLength="23" x="430.0962" y="292.4172">0..*</text><text fill="#000000" font-family="sans-serif" font-size="13" lengthAdjust="spacing" textLength="8" x="558.7375" y="384.7617">1</text></g><!--MD5=[22942e2820f34ebb65d44555f9f38be7]
link Cartao to Transacao--><g id="link_Cartao_Transacao"><path codeLine="46" d="M335.5,303.4569 C335.5,338.0669 335.5,375.2969 335.5,375.2969 C335.5,375.2969 265.18,375.2969 202.13,375.2969 " fill="none" id="Cartao-Transacao" style="stroke:#181818;stroke-width:1.0;"/><polygon fill="#000000" points="261.338,369.2344,270.695,367.5324,267.9076,362.3575,261.338,369.2344" style="stroke:#000000;stroke-width:1.0;"/><text fill="#000000" font-family="sans-serif" font-size="13" lengthAdjust="spacing" textLength="29" x="274.74" y="371.3638">gera</text><text fill="#000000" font-family="sans-serif" font-size="13" lengthAdjust="spacing" textLength="8" x="327.0375" y="323.136">1</text><text fill="#000000" font-family="sans-serif" font-size="13" lengthAdjust="spacing" textLength="23" x="210.1442" y="367.8494">0..*</text></g><!--MD5=[19afc372adb1a3d16d8a26426de4ed5c]
@startuml
' Configurações visuais para parecer um Modelo Conceitual (sem ícones de visibilidade ou métodos)
hide methods
hide circle
skinparam classAttributeIconSize 0
skinparam linetype ortho

title Modelo Conceitual - Miles Manager

class Usuario {
    nome : String
    email : String
    senha : String
}

class Cartao {
    nome : String
    bandeira : String
    limite : Double
    diaVencimento : Integer
    fatorConversao : Double
}

class ProgramaFidelidade {
    nome : String
    bancoResponsavel : String
}

class Transacao {
    data : Date
    valor : Double
    descricao : String
    categoria : String
    cotacaoDolar : Double
    pontosEstimados : Integer
}

' Relacionamentos (Associações)

' 1 Usuário possui N Cartões
Usuario "1" - - "0..*" Cartao : possui >

' 1 Cartão pertence a 1 Programa de Fidelidade (considerando que o cartão pontua em um programa específico)
Cartao "0..*" - - "1" ProgramaFidelidade : vinculado a >

' 1 Cartão possui N Transações
Cartao "1" - - "0..*" Transacao : gera >

note right of Cartao::fatorConversao
  Simplificação MVP:
  Regra de conversão (Pontos por Dólar)
  fica no Cartão.
end note

note right of Transacao::pontosEstimados
  Valor calculado e persistido
  (RF-006)
end note

note right of Transacao::cotacaoDolar
  Dólar do dia (Auditoria)
end note
@enduml

@startuml
hide methods
hide circle
skinparam classAttributeIconSize 0
skinparam linetype ortho

title Modelo Conceitual - Miles Manager

class Usuario {
    nome : String
    email : String
    senha : String
}

class Cartao {
    nome : String
    bandeira : String
    limite : Double
    diaVencimento : Integer
    fatorConversao : Double
}

class ProgramaFidelidade {
    nome : String
    bancoResponsavel : String
}

class Transacao {
    data : Date
    valor : Double
    descricao : String
    categoria : String
    cotacaoDolar : Double
    pontosEstimados : Integer
}


Usuario "1" - - "0..*" Cartao : possui >

Cartao "0..*" - - "1" ProgramaFidelidade : vinculado a >

Cartao "1" - - "0..*" Transacao : gera >

note right of Cartao::fatorConversao
  Simplificação MVP:
  Regra de conversão (Pontos por Dólar)
  fica no Cartão.
end note

note right of Transacao::pontosEstimados
  Valor calculado e persistido
  (RF-006)
end note

note right of Transacao::cotacaoDolar
  Dólar do dia (Auditoria)
end note
@enduml

PlantUML version 1.2022.7(Mon Aug 22 17:01:30 UTC 2022)
(GPL source distribution)
Java Runtime: OpenJDK Runtime Environment
JVM: OpenJDK 64-Bit Server VM
Default Encoding: UTF-8
Language: en
Country: null
--></g></svg>